<?xml version="1.0" encoding="UTF-8" standalone="no"?>
<!-- Created with Inkscape (http://www.inkscape.org/) -->

<svg
   width="31.092691mm"
   height="45.659622mm"
   viewBox="0 0 31.092691 45.659622"
   version="1.1"
   id="svg1"
   xml:space="preserve"
   xmlns="http://www.w3.org/2000/svg"
   xmlns:svg="http://www.w3.org/2000/svg"><defs
     id="defs1" /><g
     id="layer1"
     transform="translate(-149.45737,-186.26972)"><g
       id="g6"
       transform="translate(27.641024,-63.231458)"><g
         id="g21"
         transform="translate(109.58693,57.596729)"><g
           id="g24"
           transform="translate(-47.809451,65.778045)"
           style="fill:#ffc300;fill-opacity:1"><path
             style="fill:#ffc300;fill-opacity:1;stroke-width:0.264583"
             id="path21"
             d="m 48.315331,131.88197 1.497442,5.33576 5.537339,-0.22469 -4.611869,3.07299 1.924822,5.19689 -4.347735,-3.43654 -4.347734,3.43654 1.924822,-5.19689 -4.611869,-3.07299 5.537339,0.22469 z"
             transform="matrix(0.42326551,0,0,0.42326551,55.638479,70.305316)" /><path
             id="path22"
             style="fill:#ffc300;fill-opacity:1;stroke:none;stroke-width:0.1;stroke-dasharray:none;stroke-opacity:1"
             transform="rotate(39.522443)"
             d="m 134.01587,66.457066 c 4.92415,-0.544586 19.50812,-5.471755 23.4279,-1.845396 3.27447,3.029357 -0.56988,20.807976 -1.81001,29.692283 0,0 -1.48589,-16.034 -3.7784,-24.796369 -1.42966,-5.464366 -12.85288,-3.22601 -17.83949,-3.050518 z" /><path
             style="fill:#ffc300;fill-opacity:1;stroke:none;stroke-width:0.1;stroke-dasharray:none;stroke-opacity:1"
             d="m 81.069856,151.47768 c 0,0 1.01912,4.18916 -0.864489,5.76326 -2.409199,2.01333 -7.780401,4.65864 -7.780401,4.65864 0,0 4.004695,-3.89228 5.697598,-5.8019 2.136409,-2.40991 2.947292,-4.62 2.947292,-4.62 z"
             id="path23" /><path
             style="fill:#ffc300;fill-opacity:1;stroke:none;stroke-width:0.01;stroke-dasharray:none;stroke-opacity:1"
             d="m 61.570827,135.96491 c 0,0 8.398918,2.91218 13.399579,4.08231 0.261419,0.0612 0.336328,-0.52353 0.26415,-0.79245 -0.296041,-1.103 -1.483845,-1.33119 -1.548876,-3.0137 -0.06503,-1.68251 1.425987,-2.39925 2.653501,-2.4734 1.227513,-0.0742 2.262439,1.03648 2.61748,2.43737 0.355041,1.40089 -0.360204,2.35333 -0.360204,2.35333 0,0 -0.421675,0.94097 0.528299,1.08062 1.80277,0.265 12.006792,-7.01197 12.006792,-7.01197 l -9.173189,10.54196 c 0,0 0.179857,1.97972 0.06672,3.10785 -0.11314,1.12813 -0.811142,3.61596 -0.811142,3.61596 0,0 -0.05178,-1.07199 -1.344761,-2.83361 -2.982867,-4.064 -18.298346,-11.09427 -18.298346,-11.09427 z"
             id="path24" /></g></g></g></g></svg>
